<svg xmlns="http://www.w3.org/2000/svg" viewBox="0 0 320.89 511.21"><defs><style>.cls-1{fill:#23123a;}.cls-10,.cls-11,.cls-2,.cls-5,.cls-6,.cls-7,.cls-9{fill:none;}.cls-2{stroke:#58be96;}.cls-2,.cls-5,.cls-6,.cls-7,.cls-9{stroke-linecap:round;stroke-linejoin:round;}.cls-10,.cls-11,.cls-2,.cls-5,.cls-6,.cls-7{stroke-width:3px;}.cls-3{fill:#1194f6;}.cls-4{fill:#fffffe;}.cls-5,.cls-6,.cls-7,.cls-9{stroke:#fffffe;}.cls-5{stroke-dasharray:2 200;}.cls-6{stroke-dasharray:20 200;}.cls-7{stroke-dasharray:80 100;}.cls-8{fill:#58be96;}.cls-9{stroke-width:4px;}.cls-10{stroke:#1194f6;}.cls-10,.cls-11{stroke-miterlimit:10;}.cls-11{stroke:#fff;}</style></defs><g id="Layer_2" data-name="Layer 2"><g id="Dashboard"><rect class="cls-1" x="0.33" width="320.34" height="112.31"/><rect class="cls-1" x="0.35" y="100.5" width="320.33" height="410.71"/><path class="cls-2" d="M105.93,439.26l-22,2.12a3.37,3.37,0,0,1-2.35-.65h0a3.41,3.41,0,0,1-1.39-2.43l-2.12-22a3.42,3.42,0,0,1,3.08-3.74l22-2.13a3.43,3.43,0,0,1,3.74,3.09l2.12,22A3.43,3.43,0,0,1,105.93,439.26Z"/><rect class="cls-3" x="51.32" y="354.62" width="204.07" height="28.05" transform="translate(-34.65 16.41) rotate(-5.5)"/><rect class="cls-4" x="164.51" y="423.16" width="56.85" height="11.11" transform="translate(-40.22 20.48) rotate(-5.5)"/><rect class="cls-4" x="162.5" y="401.77" width="79.52" height="11.11" transform="translate(-38.13 21.27) rotate(-5.5)"/><path class="cls-5" d="M254.23,350.63h0l-2.49-25.86a8.71,8.71,0,0,0-9.5-7.83L56.34,334.85a8.71,8.71,0,0,0-7.83,9.5l2.4,24.86h0l8.52,88.43a8.71,8.71,0,0,0,9.5,7.83l185.89-17.91a8.7,8.7,0,0,0,7.83-9.5Z"/><polygon class="cls-4" points="244.33 436.6 250.05 457.28 254.17 449.18 263.85 447.86 244.33 436.6"/><rect class="cls-4" x="255.82" y="447.21" width="3.21" height="12.84" transform="matrix(0.79, -0.61, 0.61, 0.79, -222.83, 250.15)"/><path class="cls-6" d="M254.23,350.63h0l-2.49-25.86a8.71,8.71,0,0,0-9.5-7.83L56.34,334.85a8.71,8.71,0,0,0-7.83,9.5l2.4,24.86h0l8.52,88.43a8.71,8.71,0,0,0,9.5,7.83l185.89-17.91a8.7,8.7,0,0,0,7.83-9.5Z"/><path class="cls-7" d="M254.23,350.63h0l-2.49-25.86a8.71,8.71,0,0,0-9.5-7.83L56.34,334.85a8.71,8.71,0,0,0-7.83,9.5l2.4,24.86h0l8.52,88.43a8.71,8.71,0,0,0,9.5,7.83l185.89-17.91a8.7,8.7,0,0,0,7.83-9.5Z"/><path class="cls-8" d="M105.93,439.26l-22,2.12a3.37,3.37,0,0,1-2.35-.65h0l24-29.62h0a3.47,3.47,0,0,1,1.32,2.39l2.12,22A3.43,3.43,0,0,1,105.93,439.26Z"/><polyline class="cls-9" points="78.7 423.17 93.52 421.52 95.29 430.11 108.36 428.71"/><path class="cls-10" d="M.33,477.36s22.6,5.15,19.24,31.62"/><path class="cls-10" d="M267.22,503.33s7.39-72.85,53.46-79.6"/><path class="cls-11" d="M.33,422s48.33,0,53.39,86.39"/><path class="cls-4" d="M37.46,393.88a3.56,3.56,0,1,1-3.56-3.56A3.57,3.57,0,0,1,37.46,393.88Z"/><path class="cls-4" d="M304.75,366.3a3.56,3.56,0,1,1-3.56-3.56A3.56,3.56,0,0,1,304.75,366.3Z"/><path class="cls-4" d="M309.48,480.92a3.56,3.56,0,1,1-3.56-3.56A3.56,3.56,0,0,1,309.48,480.92Z"/><circle class="cls-3" cx="26.78" cy="289.74" r="3.56"/><path class="cls-3" d="M155.28,295.69a3.56,3.56,0,1,1-4.69-1.82A3.57,3.57,0,0,1,155.28,295.69Z"/><circle class="cls-3" cx="155.58" cy="477.36" r="3.56"/><circle class="cls-3" cx="283.9" cy="316.9" r="2.6"/></g></g></svg>