<svg xmlns="http://www.w3.org/2000/svg" viewBox="0 0 1125.61 634.2"><defs><style>.cls-1{fill:#23123a;}.cls-10,.cls-11,.cls-2,.cls-5,.cls-6,.cls-7,.cls-9{fill:none;}.cls-2{stroke:#58be96;stroke-width:3px;}.cls-2,.cls-5,.cls-6,.cls-7,.cls-9{stroke-linecap:round;stroke-linejoin:round;}.cls-3{fill:#1194f6;}.cls-4{fill:#fffffe;}.cls-5,.cls-6,.cls-7,.cls-9{stroke:#fffffe;}.cls-5,.cls-6,.cls-7{stroke-width:5px;}.cls-5{stroke-dasharray:2 200;}.cls-6{stroke-dasharray:20 200;}.cls-7{stroke-dasharray:80 100;}.cls-8{fill:#58be96;}.cls-10,.cls-11,.cls-9{stroke-width:4px;}.cls-10{stroke:#1194f6;}.cls-10,.cls-11{stroke-miterlimit:10;}.cls-11{stroke:#fff;}</style></defs><g id="Layer_2" data-name="Layer 2"><g id="Dashboard"><rect class="cls-1" x="0.44" width="1123.15" height="105.91"/><rect class="cls-1" x="0.46" y="100.5" width="1123.17" height="531.61"/><path class="cls-2" d="M449.79,523.66l-41.19,4a6.35,6.35,0,0,1-4.4-1.21h0a6.36,6.36,0,0,1-2.59-4.55l-4-41.18a6.41,6.41,0,0,1,5.77-7l41.18-4a6.43,6.43,0,0,1,7,5.77l4,41.19A6.4,6.4,0,0,1,449.79,523.66Z"/><rect class="cls-3" x="347.69" y="365.42" width="381.56" height="52.44" transform="translate(-35.08 53.44) rotate(-5.5)"/><rect class="cls-4" x="559.32" y="493.57" width="106.29" height="20.76" transform="translate(-45.5 61.06) rotate(-5.5)"/><rect class="cls-4" x="555.57" y="453.56" width="148.69" height="20.76" transform="translate(-41.59 62.55) rotate(-5.5)"/><path class="cls-5" d="M727.08,357.94h0l-4.66-48.34A16.27,16.27,0,0,0,704.65,295L357.08,328.44a16.29,16.29,0,0,0-14.65,17.77l4.48,46.49h0L362.84,558a16.27,16.27,0,0,0,17.77,14.64l347.57-33.48a16.29,16.29,0,0,0,14.65-17.77Z"/><polygon class="cls-4" points="708.57 518.7 719.26 557.36 726.96 542.22 745.06 539.75 708.57 518.7"/><rect class="cls-4" x="730.04" y="538.54" width="6" height="24.01" transform="translate(-183.67 559.44) rotate(-37.46)"/><path class="cls-6" d="M727.08,357.94h0l-4.66-48.34A16.27,16.27,0,0,0,704.65,295L357.08,328.44a16.29,16.29,0,0,0-14.65,17.77l4.48,46.49h0L362.84,558a16.27,16.27,0,0,0,17.77,14.64l347.57-33.48a16.29,16.29,0,0,0,14.65-17.77Z"/><path class="cls-7" d="M727.08,357.94h0l-4.66-48.34A16.27,16.27,0,0,0,704.65,295L357.08,328.44a16.29,16.29,0,0,0-14.65,17.77l4.48,46.49h0L362.84,558a16.27,16.27,0,0,0,17.77,14.64l347.57-33.48a16.29,16.29,0,0,0,14.65-17.77Z"/><path class="cls-8" d="M449.79,523.66l-41.19,4a6.35,6.35,0,0,1-4.4-1.21h0L449.11,471h0a6.42,6.42,0,0,1,2.47,4.46l4,41.19A6.4,6.4,0,0,1,449.79,523.66Z"/><polyline class="cls-9" points="398.88 493.58 426.6 490.5 429.89 506.55 454.33 503.95"/><path class="cls-10" d="M.44,530.35s74,16.88,63,103.6"/><path class="cls-10" d="M861.81,632.11s17.57-136.21,127-148.84,134.78-199.53,134.78-199.53"/><path class="cls-2" d="M953.66,101.46S930,602.31,1121.41,581.52"/><path class="cls-11" d="M.44,349.08s158.34,0,174.92,283"/><path class="cls-11" d="M1010,632.11S943.72,251,1121.41,150.3"/><path class="cls-4" d="M256.46,579.16a6.66,6.66,0,1,1-6.66-6.65A6.66,6.66,0,0,1,256.46,579.16Z"/><path class="cls-4" d="M838.26,452.57a6.66,6.66,0,1,1-6.65-6.66A6.66,6.66,0,0,1,838.26,452.57Z"/><circle class="cls-4" cx="917.95" cy="227.06" r="6.66"/><path class="cls-3" d="M243.15,384.45a6.66,6.66,0,1,1-6.66-6.66A6.66,6.66,0,0,1,243.15,384.45Z"/><circle class="cls-3" cx="1066.31" cy="456.98" r="6.66" transform="translate(-35.49 820.14) rotate(-41.44)"/><circle class="cls-3" cx="57.22" cy="521.72" r="6.66"/><path class="cls-3" d="M806.1,559.2a4.86,4.86,0,1,1-4.85-4.85A4.86,4.86,0,0,1,806.1,559.2Z"/></g></g></svg>